<?xml version="1.0" encoding="UTF-8" standalone="no"?>
<!DOCTYPE svg PUBLIC "-//W3C//DTD SVG 1.1//EN" "http://www.w3.org/Graphics/SVG/1.1/DTD/svg11.dtd">
<svg width="100%" height="100%" viewBox="0 0 78 78" version="1.1" xmlns="http://www.w3.org/2000/svg" xmlns:xlink="http://www.w3.org/1999/xlink" xml:space="preserve" xmlns:serif="http://www.serif.com/" style="fill-rule:evenodd;clip-rule:evenodd;stroke-linejoin:round;stroke-miterlimit:1.41421;">
    <g transform="matrix(5.55556,0,0,5.55556,-461.111,-3177.78)">
        <g transform="matrix(1,0,0,1,0,364)">
            <g>
                <g transform="matrix(0.608696,0,0,0.608696,70.8261,198.87)">
                    <rect x="20" y="15" width="23" height="23" style="fill:none;"/>
                </g>
                <g id="在线支持" transform="matrix(1,0,0,1,0,-209.989)">
                    <path d="M93.252,430.278C93.302,430.278 93.35,430.267 93.395,430.245C93.395,430.245 93.395,430.245 93.395,430.245C93.457,430.214 93.541,430.168 93.648,430.093C93.862,429.943 94.138,429.708 94.408,429.384C94.695,429.038 94.978,428.59 95.187,428.032C95.229,427.918 95.213,427.791 95.144,427.691C95.074,427.592 94.961,427.532 94.84,427.532C94.84,427.529 94.84,427.529 94.839,427.529C94.541,427.529 94.299,427.287 94.299,426.988L94.299,423.208C94.299,422.959 94.476,422.764 94.704,422.701C94.704,422.701 94.827,422.645 95.317,422.755C95.317,422.755 95.317,422.755 95.317,422.755C95.351,422.762 95.387,422.75 95.41,422.725C95.434,422.699 95.442,422.663 95.433,422.629C94.733,420.308 92.579,418.616 90.029,418.616C87.462,418.616 85.296,420.331 84.612,422.677C84.607,422.698 84.612,422.72 84.626,422.735C84.641,422.751 84.662,422.758 84.683,422.754C84.683,422.755 84.683,422.755 84.683,422.755C85.173,422.645 85.296,422.701 85.296,422.701C85.524,422.764 85.701,422.959 85.701,423.208L85.701,426.989C85.701,427.287 85.459,427.529 85.161,427.529C83.818,427.529 83,426.44 83,425.098C83,424.303 83.294,423.607 83.81,423.167C83.844,423.137 83.868,423.097 83.877,423.052C84.439,420.167 86.98,417.989 90.029,417.989C93.1,417.989 95.655,420.198 96.193,423.113C96.201,423.155 96.222,423.194 96.254,423.223C96.73,423.666 97,424.336 97,425.098C97,425.865 96.733,426.549 96.253,426.995C96.22,427.026 96.198,427.067 96.191,427.112C96.011,428.316 95.521,429.227 94.998,429.856C94.684,430.235 94.357,430.511 94.087,430.7C93.952,430.795 93.824,430.867 93.716,430.92C93.607,430.972 93.561,431.021 93.378,431.021L92.446,431.021C92.366,431.021 92.295,431.069 92.263,431.142C92.028,431.644 91.447,432 90.762,432C89.867,432 89.141,431.395 89.141,430.65C89.141,429.904 89.867,429.299 90.762,429.299C91.447,429.299 92.028,429.656 92.265,430.157C92.296,430.229 92.367,430.275 92.446,430.275C92.661,430.278 93.081,430.278 93.252,430.278ZM85.921,423.073C85.818,422.929 85.808,422.738 85.894,422.583C86.692,421.145 88.235,420.191 90,420.191C91.765,420.191 93.308,421.145 94.137,422.566C94.229,422.733 94.218,422.938 94.107,423.093C94.024,423.149 93.992,423.241 93.992,423.344L93.992,426.855C93.992,426.936 94.012,427.013 94.046,427.08C94.124,427.227 94.117,427.404 94.03,427.546C93.577,428.306 92.901,428.913 92.103,429.302C91.942,429.377 91.754,429.362 91.608,429.261C91.362,429.095 91.048,429 90.707,429C90.215,429 89.779,429.197 89.506,429.501C89.394,429.641 89.214,429.708 89.038,429.675C87.739,429.423 86.633,428.637 85.947,427.558C85.856,427.409 85.85,427.223 85.931,427.069C85.988,427.013 86.008,426.936 86.008,426.855L86.008,423.344C86.008,423.241 85.976,423.149 85.921,423.073Z" style="fill:rgb(51,51,51);"/>
                </g>
            </g>
        </g>
    </g>
</svg>
