<?xml version="1.0" encoding="UTF-8" standalone="no"?>
<!DOCTYPE svg PUBLIC "-//W3C//DTD SVG 1.1//EN" "http://www.w3.org/Graphics/SVG/1.1/DTD/svg11.dtd">
<svg width="100%" height="100%" viewBox="0 0 14 15" version="1.1" xmlns="http://www.w3.org/2000/svg" xmlns:xlink="http://www.w3.org/1999/xlink" xml:space="preserve" xmlns:serif="http://www.serif.com/" style="fill-rule:evenodd;clip-rule:evenodd;stroke-linejoin:round;stroke-miterlimit:1.41421;">
    <g transform="matrix(1,0,0,1,-59,-571.8)">
        <g transform="matrix(1,0,0,1,0,364)">
            <g>
                <g>
                    <g transform="matrix(0.608696,0,0,0.608696,46.8261,198.87)">
                        <rect x="20" y="15" width="23" height="23" style="fill:none;"/>
                    </g>
                    <g id="帮助文档" transform="matrix(1,0,0,1,-24,-210)">
                        <path d="M92.5,421.3C92.5,421.41 92.59,421.5 92.7,421.5C93.317,421.5 95.183,421.5 95.8,421.5C95.91,421.5 96,421.59 96,421.7C96,422.849 96,428.643 96,431C96,431.265 95.895,431.52 95.707,431.707C95.52,431.895 95.265,432 95,432C92.74,432 87.26,432 85,432C84.448,432 84,431.552 84,431C84,428.423 84,421.577 84,419C84,418.448 84.448,418 85,418C86.986,418 91.319,418 92.3,418C92.41,418 92.5,418.09 92.5,418.2C92.5,418.817 92.5,420.683 92.5,421.3ZM90.5,429C90.633,429 90.76,428.947 90.854,428.854C90.947,428.76 91,428.633 91,428.5C91,428.367 90.947,428.24 90.854,428.146C90.76,428.053 90.633,428 90.5,428C89.542,428 87.458,428 86.5,428C86.367,428 86.24,428.053 86.146,428.146C86.053,428.24 86,428.367 86,428.5C86,428.633 86.053,428.76 86.146,428.854C86.24,428.947 86.367,429 86.5,429C87.458,429 89.542,429 90.5,429ZM93.5,426.5C93.776,426.5 94,426.276 94,426C94,425.724 93.776,425.5 93.5,425.5C92.064,425.5 87.936,425.5 86.5,425.5C86.224,425.5 86,425.724 86,426C86,426.276 86.224,426.5 86.5,426.5C87.936,426.5 92.064,426.5 93.5,426.5ZM93.5,424C93.776,424 94,423.776 94,423.5C94,423.224 93.776,423 93.5,423C92.064,423 87.936,423 86.5,423C86.224,423 86,423.224 86,423.5C86,423.776 86.224,424 86.5,424C87.936,424 92.064,424 93.5,424ZM95.859,420.659C95.916,420.716 95.933,420.802 95.902,420.877C95.871,420.951 95.798,421 95.717,421C95.003,421 93.698,421 93.2,421C93.09,421 93,420.91 93,420.8C93,420.302 93,418.997 93,418.283C93,418.202 93.049,418.129 93.123,418.098C93.198,418.067 93.284,418.084 93.341,418.141C93.956,418.756 95.244,420.044 95.859,420.659Z" style="fill:rgb(51,51,51);"/>
                    </g>
                </g>
            </g>
        </g>
    </g>
</svg>
